<svg width="16" height="16" viewBox="0 0 16 16" fill="none" xmlns="http://www.w3.org/2000/svg">
<g id="Group">
<path id="Vector" d="M13.6001 14.9998V10.7998C13.6006 9.56666 13.1941 8.36783 12.4435 7.38937C11.693 6.41091 10.6405 5.70753 9.44937 5.38841C8.25823 5.06928 6.99505 5.15224 5.85588 5.62442C4.71671 6.0966 3.76524 6.93159 3.14915 7.99981M2.40015 14.9998V10.7998" stroke="white" stroke-width="1.2" stroke-linecap="round"/>
<path id="Vector_2" d="M9.60295 7.65C9.95116 7.79131 10.2675 8.00103 10.5332 8.26675C10.7989 8.53247 11.0086 8.8488 11.15 9.197M7.99995 1V3.1M14.3 3.8L13.25 4.85M1.69995 3.8L2.74995 4.85" stroke="white" stroke-width="1.2" stroke-linecap="round"/>
<path id="Vector_3" d="M9.04995 11.8499C9.04995 12.1284 8.93933 12.3955 8.74241 12.5924C8.5455 12.7893 8.27843 12.8999 7.99995 12.8999C7.72147 12.8999 7.4544 12.7893 7.25749 12.5924C7.06058 12.3955 6.94995 12.1284 6.94995 11.8499C6.94995 11.5714 7.06058 11.3044 7.25749 11.1075C7.4544 10.9106 7.72147 10.7999 7.99995 10.7999C8.27843 10.7999 8.5455 10.9106 8.74241 11.1075C8.93933 11.3044 9.04995 11.5714 9.04995 11.8499Z" stroke="white" stroke-width="1.2"/>
<path id="Vector_4" d="M8 12.9V15M1 15H9.4M15 15H12.2" stroke="white" stroke-width="1.2" stroke-linecap="round"/>
</g>
</svg>
