<svg width="16" height="16" viewBox="0 0 16 16" fill="none" xmlns="http://www.w3.org/2000/svg">
<path d="M1 8.73684V12.0526C1 13.4423 1 14.1364 1.43179 14.5682C1.86358 15 2.55768 15 3.94737 15C5.33705 15 6.03116 15 6.46295 14.5682C6.89474 14.1364 6.89474 13.4423 6.89474 12.0526V3.94737C6.89474 2.55768 6.89474 1.86358 6.46295 1.43179C6.03116 1 5.33705 1 3.94737 1C2.55768 1 1.86358 1 1.43179 1.43179C1 1.86358 1 2.55768 1 3.94737V5.78947M15 12.4211C14.9963 13.5683 14.9602 14.1769 14.5682 14.5682C14.1364 15 13.4423 15 12.0526 15C10.6629 15 9.96884 15 9.53705 14.5682C9.10526 14.1364 9.10526 13.4423 9.10526 12.0526V10.5789C9.10526 9.18926 9.10526 8.49516 9.53705 8.06337C9.96884 7.63158 10.6629 7.63158 12.0526 7.63158C13.4423 7.63158 14.1364 7.63158 14.5682 8.06337C14.8659 8.36105 14.9587 8.784 14.9875 9.47368" stroke="white" stroke-width="1.2" stroke-linecap="round"/>
<path d="M9.10522 3.21053C9.10522 2.52379 9.10522 2.18042 9.21722 1.91C9.29129 1.73108 9.39988 1.56851 9.53681 1.43159C9.67374 1.29466 9.83631 1.18606 10.0152 1.112C10.2856 1 10.629 1 11.3158 1H12.7894C13.4762 1 13.8195 1 14.09 1.112C14.2689 1.18606 14.4315 1.29466 14.5684 1.43159C14.7053 1.56851 14.8139 1.73108 14.888 1.91C15 2.18042 15 2.52379 15 3.21053C15 3.89726 15 4.24063 14.888 4.51105C14.8139 4.68997 14.7053 4.85254 14.5684 4.98947C14.4315 5.12639 14.2689 5.23499 14.09 5.30905C13.8195 5.42105 13.4762 5.42105 12.7894 5.42105H11.3158C10.629 5.42105 10.2856 5.42105 10.0152 5.30905C9.83631 5.23499 9.67374 5.12639 9.53681 4.98947C9.39988 4.85254 9.29129 4.68997 9.21722 4.51105C9.10522 4.24063 9.10522 3.89726 9.10522 3.21053Z" stroke="white" stroke-width="1.2"/>
</svg>
