<svg width="16" height="16" viewBox="0 0 16 16" fill="none" xmlns="http://www.w3.org/2000/svg">
<g id="Group">
<path id="Vector" d="M12.2 6.60001H8.69995" stroke="white" stroke-width="1.2" stroke-linecap="round"/>
<path id="Vector_2" d="M6.6001 1.70001H11.1501C11.4749 1.70001 11.638 1.70001 11.7745 1.71821C12.2327 1.77863 12.6581 1.98849 12.9848 2.31526C13.3116 2.64203 13.5215 3.06746 13.5819 3.52561C13.6001 3.66211 13.6001 3.82521 13.6001 4.15001" stroke="white" stroke-width="1.2"/>
<path id="Vector_3" d="M15 7.8586C15 6.0162 15 5.0943 14.461 4.4958C14.4116 4.44055 14.3592 4.38798 14.3042 4.3383C13.7057 3.8 12.7838 3.8 10.9414 3.8H10.6796C9.8725 3.8 9.4686 3.8 9.092 3.6929C8.88533 3.63382 8.68615 3.55115 8.4984 3.4465C8.1568 3.2568 7.8712 2.9705 7.3 2.4L6.915 2.015C6.7232 1.8232 6.628 1.728 6.5272 1.644C6.09367 1.28465 5.56185 1.06436 5.0012 1.0119C4.871 1 4.7352 1 4.465 1C3.8469 1 3.5382 1 3.2806 1.049C2.72749 1.15346 2.2187 1.4222 1.82061 1.82016C1.42253 2.21812 1.15363 2.72682 1.049 3.2799C1 3.5382 1 3.8476 1 4.465M14.9937 10.8C14.9685 12.536 14.8397 13.5195 14.1796 14.1796C13.3599 15 12.0397 15 9.4 15H6.6C3.9603 15 2.6401 15 1.8204 14.1796C1 13.3599 1 12.0397 1 9.4V7.3" stroke="white" stroke-width="1.2" stroke-linecap="round"/>
</g>
</svg>
