<svg width="16" height="16" viewBox="0 0 16 16" fill="none" xmlns="http://www.w3.org/2000/svg">
<path d="M8.0001 10.3331C8.7736 10.3331 9.4001 9.81091 9.4001 9.16691C9.4001 8.52291 8.7736 8.00001 8.0001 8.00001C7.2266 8.00001 6.6001 7.47781 6.6001 6.83311C6.6001 6.18911 7.2266 5.66691 8.0001 5.66691M8.0001 10.3331C7.2266 10.3331 6.6001 9.81091 6.6001 9.16691M8.0001 10.3331V10.8M8.0001 5.66691V5.20001M8.0001 5.66691C8.7736 5.66691 9.4001 6.18911 9.4001 6.83311" stroke="white" stroke-width="1.2" stroke-linecap="round"/>
<path d="M11.5 1.93661C10.4363 1.32124 9.22884 0.998115 8 1.00001C4.1339 1.00001 1 4.13391 1 8.00001C1 9.12001 1.2632 10.1784 1.7301 11.1171C1.8547 11.3663 1.896 11.6512 1.8239 11.9207L1.4074 13.4789C1.3663 13.6331 1.36646 13.7953 1.40785 13.9494C1.44924 14.1035 1.53041 14.244 1.64322 14.3568C1.75604 14.4696 1.89653 14.5508 2.05061 14.5922C2.20469 14.6336 2.36694 14.6337 2.5211 14.5926L4.0793 14.1761C4.34978 14.108 4.63582 14.1411 4.8836 14.2692C5.85165 14.7512 6.91858 15.0014 8 15C11.8661 15 15 11.8661 15 8.00001C15 6.72531 14.6591 5.52901 14.0634 4.50001" stroke="white" stroke-width="1.2" stroke-linecap="round"/>
</svg>
