<svg width="16" height="16" viewBox="0 0 16 16" fill="none" xmlns="http://www.w3.org/2000/svg">
<path d="M14.3473 3.10001C14.7617 3.77061 15.0004 4.56021 15.0004 5.40512C15.0004 7.83833 13.0194 9.81094 10.5764 9.81094C10.1311 9.81094 9.11614 9.70873 8.62264 9.29853L8.00524 9.91314C7.49074 10.4255 7.90234 10.4255 8.10814 10.835C8.10814 10.835 8.62264 11.5525 8.10814 12.27C7.79944 12.6795 6.93494 13.2528 5.94793 12.27L5.74213 12.4744C5.74213 12.4744 6.35883 13.1919 5.84503 13.9095C5.53633 14.319 4.71313 14.7285 3.99282 14.0117L3.27322 14.7285C2.77902 15.2206 2.17562 14.9336 1.93622 14.7285L1.31811 14.1139C0.742011 13.5398 1.07801 12.9182 1.31811 12.6788L6.66753 7.35183C6.66753 7.35183 6.15303 6.53282 6.15303 5.40582C6.15303 2.97261 8.13404 1 10.577 1C11.1504 1 11.6978 1.1085 12.2004 1.3059" stroke="white" stroke-width="1.2" stroke-linecap="round" stroke-linejoin="round"/>
</svg>
