<svg width="17" height="18" viewBox="0 0 17 18" fill="none" xmlns="http://www.w3.org/2000/svg">
<path d="M8.54261 11.4001C9.8681 11.4001 10.9426 10.3255 10.9426 9.00003C10.9426 7.67453 9.8681 6.60001 8.54261 6.60001C7.21711 6.60001 6.14258 7.67453 6.14258 9.00003C6.14258 10.3255 7.21711 11.4001 8.54261 11.4001Z" stroke="white" stroke-width="1.2"/>
<path d="M1.87136 7.91208C2.24976 8.14888 2.49296 8.55368 2.49296 9.00009C2.49296 9.44649 2.24976 9.8513 1.87136 10.0881C1.61455 10.2505 1.44815 10.3793 1.33055 10.5329C1.20262 10.6997 1.1088 10.89 1.05444 11.093C1.00008 11.296 0.986256 11.5078 1.01375 11.7161C1.05535 12.0313 1.24175 12.3545 1.61375 13.0001C1.98736 13.6457 2.17376 13.9681 2.42576 14.1625C2.59251 14.2905 2.78284 14.3843 2.98585 14.4387C3.18887 14.493 3.40061 14.5068 3.60898 14.4794C3.80098 14.4538 3.99538 14.3753 4.26418 14.2329C4.45655 14.1277 4.67253 14.073 4.89182 14.0741C5.11111 14.0753 5.32651 14.1321 5.5178 14.2393C5.9042 14.4633 6.1338 14.8754 6.14981 15.3218C6.16101 15.6258 6.18981 15.8338 6.26421 16.0122C6.34462 16.2064 6.46253 16.3829 6.61119 16.5316C6.75985 16.6803 6.93636 16.7982 7.13062 16.8786C7.42422 17.0002 7.79702 17.0002 8.54263 17.0002C9.28824 17.0002 9.66104 17.0002 9.95465 16.8786C10.1489 16.7982 10.3254 16.6803 10.4741 16.5316C10.6227 16.3829 10.7406 16.2064 10.8211 16.0122C10.8947 15.8338 10.9243 15.6258 10.9355 15.3218C10.9515 14.8754 11.1811 14.4625 11.5675 14.2393C11.7587 14.1321 11.9742 14.0753 12.1934 14.0741C12.4127 14.073 12.6287 14.1277 12.8211 14.2329C13.0899 14.3753 13.2851 14.4538 13.4771 14.4794C13.8976 14.5347 14.3229 14.4207 14.6595 14.1625C14.9115 13.9689 15.0979 13.6457 15.4707 13.0001C15.6371 12.7121 15.7659 12.4889 15.8619 12.3017M15.2139 10.0889C15.0266 9.97506 14.8713 9.8155 14.7626 9.62518C14.6538 9.43487 14.5953 9.22005 14.5923 9.00089C14.5923 8.55368 14.8355 8.14888 15.2139 7.91128C15.4707 7.74967 15.6363 7.62087 15.7547 7.46727C15.8826 7.30052 15.9765 7.1102 16.0308 6.90718C16.0852 6.70416 16.099 6.49242 16.0715 6.28406C16.0299 5.96885 15.8435 5.64565 15.4715 5.00004C15.0979 4.35444 14.9115 4.03203 14.6595 3.83763C14.4927 3.7097 14.3024 3.61588 14.0994 3.56152C13.8964 3.50716 13.6847 3.49334 13.4763 3.52083C13.2843 3.54643 13.0899 3.62483 12.8203 3.76723C12.628 3.87236 12.4122 3.92693 12.193 3.92581C11.9739 3.92469 11.7587 3.86792 11.5675 3.76083C11.379 3.64875 11.2222 3.49062 11.1116 3.30128C11.0011 3.11194 10.9404 2.89761 10.9355 2.67842C10.9243 2.37442 10.8955 2.16641 10.8211 1.98801C10.7406 1.79375 10.6227 1.61725 10.4741 1.46858C10.3254 1.31992 10.1489 1.20201 9.95465 1.1216C9.66104 1 9.28824 1 8.54263 1C7.79702 1 7.42422 1 7.13062 1.1216C6.93636 1.20201 6.75985 1.31992 6.61119 1.46858C6.46253 1.61725 6.34462 1.79375 6.26421 1.98801C6.19061 2.16641 6.16101 2.37442 6.14981 2.67842C6.14482 2.89761 6.08421 3.11194 5.97365 3.30128C5.8631 3.49062 5.70624 3.64875 5.5178 3.76083C5.32651 3.86807 5.11111 3.92491 4.89182 3.92603C4.67253 3.92715 4.45655 3.87251 4.26418 3.76723C3.99538 3.62483 3.80018 3.54643 3.60818 3.52083C3.18763 3.46552 2.76233 3.57947 2.42576 3.83763C2.17456 4.03203 1.98736 4.35444 1.61455 5.00004C1.44815 5.28805 1.31935 5.51125 1.22335 5.69845" stroke="white" stroke-width="1.2" stroke-linecap="round"/>
</svg>
