<svg width="16" height="16" viewBox="0 0 16 16" fill="none" xmlns="http://www.w3.org/2000/svg">
<path d="M6.15782 6.89474C7.7856 6.89474 9.10519 5.57516 9.10519 3.94737C9.10519 2.31958 7.7856 1 6.15782 1C4.53003 1 3.21045 2.31958 3.21045 3.94737C3.21045 5.57516 4.53003 6.89474 6.15782 6.89474Z" stroke="white" stroke-width="1.2"/>
<path d="M10.5789 6.1579C11.1652 6.1579 11.7275 5.92501 12.142 5.51045C12.5566 5.0959 12.7895 4.53364 12.7895 3.94737C12.7895 3.36111 12.5566 2.79885 12.142 2.3843C11.7275 1.96974 11.1652 1.73685 10.5789 1.73685M3.86632 14.6935C4.55526 14.8895 5.33411 15 6.15789 15C9.00653 15 11.3158 13.6811 11.3158 12.0526C11.3158 10.4242 9.00653 9.10527 6.15789 9.10527C3.30926 9.10527 1 10.4242 1 12.0526C1 12.3068 1.05674 12.5537 1.16211 12.7895M12.7895 9.84211C14.0819 10.1258 15 10.8435 15 11.6842C15 12.4432 14.2528 13.1012 13.1579 13.4305" stroke="white" stroke-width="1.2" stroke-linecap="round"/>
</svg>
