<svg width="170" height="62" viewBox="0 0 170 62" fill="none" xmlns="http://www.w3.org/2000/svg">
<g clip-path="url(#clip0_101_859)">
<path d="M68 2.632C68 0.877 69.054 0 70.645 0C72.237 0 73.29 0.904 73.29 2.632V9.914H73.365C74.0604 9.00994 74.9617 8.28508 75.9938 7.79979C77.026 7.31449 78.1592 7.0828 79.299 7.124C82.504 7.124 86 8.721 86 14.081V24.368C86 25.781 85.418 27 83.355 27C81.292 27 80.71 25.767 80.71 24.368V15.13C80.71 12.993 79.656 11.476 77.36 11.476C75.09 11.521 73.285 13.381 73.317 15.639V24.368C73.317 25.781 72.739 27 70.672 27C68.604 27 68.026 25.767 68.026 24.368L68 2.632Z" fill="#EAA200"/>
<path d="M93.096 17.468C93.096 20.133 94.856 22.078 97.847 22.078C101.717 22.078 101.717 19.563 103.813 19.563C104.943 19.561 105.878 20.428 105.943 21.537C105.943 24.579 100.983 26 97.886 26C90.71 26 88 21.223 88 16.827C88 10.96 91.622 7 97.71 7C103.621 7 107 11.12 107 15.272C107 17.002 106.472 17.452 104.75 17.452L93.096 17.468ZM102.104 14.564C101.827 12.242 100.067 10.549 97.779 10.549C95.222 10.549 93.659 12.104 93.092 14.564H102.104ZM110 2.632C110 0.877 110.996 0 112.5 0C114.004 0 115 0.904 115 2.632V24.368C115 26.123 114.004 27 112.5 27C110.996 27 110 26.096 110 24.368V2.632ZM118 2.632C118 0.877 118.996 0 120.5 0C122.004 0 123 0.904 123 2.632V24.368C123 26.123 122.004 27 120.5 27C118.996 27 118 26.096 118 24.368V2.632ZM136.5 7C142.69 7 146 11.157 146 16.483C146 21.537 143.5 26 136.5 26C129.5 26 127 21.537 127 16.466C127 11.157 130.31 7 136.5 7ZM136.5 22.262C139.559 22.262 140.862 19.563 140.862 16.483C140.862 13.198 139.491 10.738 136.5 10.738C133.51 10.738 132.138 13.198 132.138 16.466C132.138 19.563 133.441 22.262 136.5 22.262ZM74.517 36C78.319 36 82.154 37.521 82.154 39.839C82.1705 40.1236 82.1291 40.4086 82.0324 40.6767C81.9356 40.9448 81.7854 41.1905 81.591 41.399C81.199 41.819 80.652 42.056 80.081 42.055C78.132 42.055 78.061 39.738 74.911 39.738C73.165 39.738 72.038 40.22 72.038 41.293C72.038 42.47 73.165 42.747 74.708 43.095L76.781 43.577C79.621 44.234 83 45.446 83 48.978C83 53.093 79.065 55 75.3 55C70.777 55 67.008 52.955 67.008 50.466C67.008 49.36 67.626 48.371 69.028 48.371C71.183 48.371 71.391 51.484 75.089 51.484C76.868 51.484 77.991 50.692 77.991 49.653C77.991 48.371 76.893 48.165 75.114 47.713L72.17 46.988C69.268 46.258 67 45.048 67 41.658C67.02 37.52 71.06 36 74.517 36ZM92.576 49.394H92.645L95.823 37.368C96.183 36.022 96.896 35.005 98.323 35.005C99.708 34.929 100.898 35.995 101 37.403C100.962 37.9782 100.828 38.5432 100.606 39.075L94.574 56.482C93.324 60.112 91.897 62 88.61 62C86.288 62 85.323 60.838 85.323 59.567C85.323 58.15 86.323 57.424 87.719 57.424H88.251C88.93 57.424 89.678 57.389 90.071 55.756L84.644 40.021C84.212 38.745 84 38.17 84 37.548C83.9981 36.8688 84.2661 36.2166 84.745 35.735C84.9795 35.4989 85.2593 35.3125 85.5676 35.1871C85.8758 35.0616 86.2062 34.9997 86.539 35.005C87.785 34.926 88.909 35.762 89.215 36.994L92.576 49.394ZM103 38.529C103 37.006 103.727 36.013 105.404 36.013C107.082 36.013 107.799 37.019 107.799 38.529V39.183H107.874C109.367 37.317 111.291 36 114.312 36C117.508 36 121 37.522 121 42.646V52.484C121 53.834 120.419 55 118.358 55C116.298 55 115.716 53.822 115.716 52.484V43.653C115.716 41.611 114.664 40.156 112.374 40.156C110.108 40.201 108.304 41.98 108.337 44.139V52.484C108.337 53.834 107.755 55 105.695 55C103.635 55 103.053 53.822 103.053 52.484L103 38.529ZM141 52.5C141 54.127 140.27 55 138.702 55C137.205 55 136.404 54.123 136.404 52.5V51.668H136.337C135.493 53.913 133.444 55 130.973 55C126.723 55 123 51.777 123 44.916C123 39.847 125.47 35.103 130.834 35.103C133.094 35.103 134.836 36.081 135.848 37.782H135.915V30.63C135.915 28.876 136.927 27.999 138.445 27.999C139.963 27.999 140.975 28.907 140.975 30.629L141 52.5ZM132.12 50.87C135.072 50.87 136.193 48.116 136.193 45.113C136.193 42.399 135.219 39.211 132.12 39.246C128.882 39.246 128.08 42.653 128.08 45.113C128.08 48.226 129.405 50.8 132.12 50.87ZM145 38.518C145 37.167 145.546 36 147.5 36C149.454 36 150 37.18 150 38.518V52.482C150 53.833 149.45 55 147.5 55C145.55 55 145 53.82 145 52.482V38.518ZM162.567 36C166.822 36 170 38.389 170 40.744C170 42.194 168.918 42.919 167.625 42.919C165.221 42.919 166.091 39.943 162.428 39.943C160.438 39.943 158.1 41.293 158.1 45.865C158.1 49.012 159.6 51.052 162.39 51.052C165.952 51.052 165.183 47.801 167.883 47.801C168.15 47.7885 168.417 47.8289 168.668 47.9199C168.92 48.0108 169.151 48.1505 169.348 48.331C169.745 48.694 169.978 49.201 169.996 49.737C169.996 51.953 167.46 55 162.246 55C155.966 55 153 51.157 153 45.865C153.008 40.048 156.326 36 162.567 36Z" fill="#183A60"/>
<path d="M28 57C43.464 57 56 44.464 56 29C56 13.536 43.464 1 28 1C12.536 1 0 13.536 0 29C0 44.464 12.536 57 28 57Z" fill="#183A60"/>
<path d="M40.77 32.305C40.1 29.29 38.19 26.675 35.486 25.071C34.1402 24.2759 32.6499 23.7557 31.1015 23.5408C29.5532 23.3259 27.9775 23.4205 26.466 23.819V16.312C26.507 14.14 24.86 12.287 22.647 12.02C22.0612 11.963 21.4698 12.0267 20.9096 12.2073C20.3494 12.3879 19.8322 12.6815 19.39 13.07C18.9544 13.4518 18.6052 13.922 18.3655 14.4493C18.1258 14.9765 18.0012 15.5488 18 16.128V42.688C17.955 44.878 19.63 46.739 21.863 46.981C22.4458 47.0318 23.0328 46.9632 23.5882 46.7794C24.1435 46.5956 24.6556 46.3004 25.093 45.912C25.5236 45.5304 25.8685 45.0619 26.1052 44.5374C26.3418 44.013 26.4648 43.4444 26.466 42.869V34.713C26.449 33.893 26.783 33.103 27.388 32.533C27.6906 32.2499 28.0473 32.0309 28.4367 31.8893C28.8262 31.7477 29.2402 31.6864 29.654 31.709C31.302 31.849 32.556 33.209 32.521 34.821V42.869C32.521 45.15 34.419 47 36.761 47C39.101 47 40.999 45.15 40.999 42.869V34.623C41.007 33.845 40.93 33.068 40.77 32.305Z" fill="#EAA200"/>
<path d="M147.496 28C147.824 27.9995 148.15 28.0636 148.453 28.1888C148.757 28.3139 149.032 28.4976 149.265 28.7294C149.497 28.9612 149.682 29.2365 149.808 29.5396C149.934 29.8427 149.999 30.1677 150 30.496C150.001 30.8243 149.936 31.1495 149.811 31.453C149.686 31.7565 149.502 32.0324 149.271 32.2649C149.039 32.4975 148.764 32.682 148.46 32.8082C148.157 32.9343 147.832 32.9995 147.504 33C146.841 33.0011 146.205 32.7387 145.735 32.2706C145.265 31.8025 145.001 31.167 145 30.504C144.999 29.841 145.261 29.2047 145.729 28.7351C146.197 28.2655 146.833 28.0011 147.496 28Z" fill="#183A60"/>
</g>
<defs>
<clipPath id="clip0_101_859">
<rect width="170" height="62" fill="white"/>
</clipPath>
</defs>
</svg>
