<svg width="30" height="30" viewBox="0 0 30 30" fill="none" xmlns="http://www.w3.org/2000/svg">
<path d="M15 30C23.2843 30 30 23.2843 30 15C30 6.71573 23.2843 0 15 0C6.71573 0 0 6.71573 0 15C0 23.2843 6.71573 30 15 30Z" fill="#183A60"/>
<path d="M21.4409 16.5027C21.0858 14.8876 20.0738 13.4867 18.641 12.6274C17.9278 12.2014 17.1381 11.9228 16.3177 11.8077C15.4973 11.6925 14.6624 11.7432 13.8614 11.9567V7.93512C13.8832 6.77156 13.0105 5.77889 11.8378 5.63585C11.5274 5.60529 11.2141 5.63944 10.9172 5.73619C10.6204 5.83294 10.3463 5.99024 10.112 6.19835C9.88121 6.40287 9.69615 6.65475 9.56915 6.93722C9.44215 7.21969 9.37613 7.52627 9.37547 7.83655V22.065C9.35162 23.2382 10.2392 24.2352 11.4224 24.3648C11.7312 24.392 12.0423 24.3553 12.3365 24.2568C12.6308 24.1583 12.9021 24.0002 13.1339 23.7921C13.3621 23.5877 13.5448 23.3367 13.6702 23.0558C13.7956 22.7748 13.8608 22.4702 13.8614 22.162V17.7927C13.8524 17.3534 14.0294 16.9302 14.35 16.6249C14.5103 16.4732 14.6994 16.3559 14.9057 16.28C15.1121 16.2042 15.3315 16.1713 15.5507 16.1835C16.4239 16.2585 17.0884 16.987 17.0699 17.8506V22.162C17.0699 23.3839 18.0756 24.375 19.3166 24.375C20.5565 24.375 21.5622 23.3839 21.5622 22.162V17.7445C21.5664 17.3277 21.5256 16.9115 21.4409 16.5027Z" fill="#EAA200"/>
</svg>
